<?xml version="1.0" encoding="UTF-8" standalone="no"?>
<!-- Created with Inkscape (http://www.inkscape.org/) -->

<svg
   xmlns:dc="http://purl.org/dc/elements/1.1/"
   xmlns:cc="http://creativecommons.org/ns#"
   xmlns:rdf="http://www.w3.org/1999/02/22-rdf-syntax-ns#"
   xmlns:svg="http://www.w3.org/2000/svg"
   xmlns="http://www.w3.org/2000/svg"
   version="1.1"
   width="100%"
   height="100%"
   viewBox="0 0 16 16"
   id="svg2">
  <metadata
     id="metadata8">
    <rdf:RDF>
      <cc:Work
         rdf:about="">
        <dc:format>image/svg+xml</dc:format>
        <dc:type
           rdf:resource="http://purl.org/dc/dcmitype/StillImage" />
        <dc:title></dc:title>
      </cc:Work>
    </rdf:RDF>
  </metadata>
  <defs
     id="defs6" />
  <rect
     width="16"
     height="16"
     x="0"
     y="0"
     id="canvas"
     style="fill:none;stroke:none;visibility:hidden" />
  <path
     d="m 0.02227106,-0.01864935 0,10.35005335 2.05150654,0 0,-3.6225184 2.5643838,0 c 2.0269684,10e-7 3.5901367,-1.0350053 3.5901367,-3.3637675 0,-2.328762 -1.5521193,-3.36376745 -3.1093149,-3.36376745 z m 2.05150654,2.07001075 2.5643838,0 c 0.988386,0 1.5386301,0.5438239 1.5386301,1.2937567 0,0.7499328 -0.6480499,1.2937567 -1.5386301,1.2937567 l -2.5643838,0 z M 15.055077,15.583429 c 1.092461,-0.736897 1.133726,-2.271662 0.276544,-3.184791 -0.744361,-0.869963 -1.999404,-0.80707 -2.88255,-0.07801 -1.036683,0.988361 -0.98517,2.042338 -0.219574,3.003741 0.610317,0.713255 1.852089,0.884096 2.82558,0.259062 z m -2.189769,-0.727964 c -0.724836,-0.660863 -0.460534,-1.506993 0.09561,-2.024309 0.493889,-0.353404 1.077844,-0.518668 1.795631,0 0.86516,0.985639 0.346458,1.794322 -0.167239,2.167956 -0.444392,0.417569 -1.253236,0.413654 -1.724,-0.143647 z M 6.9509367,13.998355 C 6.9834399,12.769968 6.0206916,11.774862 4.8135811,11.776144 3.6048025,11.759577 2.6928388,12.579495 2.6866435,13.905772 2.6726695,15.21629 3.6818424,15.970621 4.7796552,15.98698 5.9283319,15.96837 6.9106421,15.345569 6.9509367,13.998355 z M 3.3665245,13.886979 c 0.019057,-0.674534 0.7427276,-1.396786 1.4393285,-1.427835 0.5831946,0.06685 1.4871666,0.618319 1.4393072,1.427835 -0.028577,0.814057 -0.5690596,1.407931 -1.4305395,1.389457 -0.7545329,-0.06149 -1.4607235,-0.58126 -1.4480962,-1.389457 z m 4.1284437,0.686395 c 1.3503928,0.1 2.2883819,0.06815 3.4979758,-0.431013 0.01374,-2.029152 1.490933,-3.222114 3.247723,-2.886045 0.182283,0.151437 0.0046,-0.45326 0.07195,-0.562181 0.06473,-0.07145 0.0076,-0.06391 0.01394,-0.141265 C 14.023927,9.729159 13.327845,9.5118301 12.54215,9.1993918 l -0.479789,-0.1696875 -0.0011,0.2249092 c -8.14e-4,0.1958958 -0.0016,0.2246351 -0.0068,0.2227927 C 11.159801,8.8288213 10.428876,8.2955413 9.4725653,7.6091766 8.9049818,7.3258123 8.5343019,7.5054144 8.1853494,7.8202291 7.789373,8.2772977 7.4704881,8.7892171 7.1436345,9.291057 l 0.0022,0.00207 C 7.6092864,9.6248369 7.9346147,9.9216981 8.3980646,10.253401 8.9016867,9.7485627 9.3054228,9.3020014 9.6814458,8.7161506 c 0.0025,0 2.1562652,1.5605264 2.1666672,1.5698464 -0.175096,0.551056 -0.67391,0.911217 -1.167974,0.904348 -0.08597,-0.297089 -0.230415,-0.397907 -0.38908,-0.448855 C 9.5154925,10.695247 8.7371764,10.697173 8.0311988,10.692131 7.6046111,10.358178 7.1706262,10.028918 6.7409426,9.7016427 6.4903071,10.061715 6.2953903,10.344119 6.0306807,10.726752 5.352445,10.721843 4.8356721,10.713545 4.1054592,10.703848 3.6481553,10.870034 3.7140053,11.326639 3.795996,11.353869 6.5600747,11.194907 7.7816981,12.253092 7.4949682,14.573374 z M 10.596524,7.16337 C 10.236369,7.1471967 10.067737,7.0035331 9.7336681,6.8814172 c -0.00332,-0.0029 -0.00306,-0.4677994 1.072e-4,-0.471419 0.3207067,0.047115 0.4486257,0.069649 0.8635977,0.1348472 0.0036,0 -0.0025,-0.028997 -0.02112,-0.1011612 L 10.550097,6.3425218 C 9.8699636,5.2963355 8.6997376,5.426871 8.2249615,6.3212983 8.135911,6.4658027 8.1687711,6.6323913 8.1406939,6.787838 l -0.021668,0.082415 c 0.07933,0.1190316 0.1273351,0.2538316 0.1909553,0.380653 0.5631837,-0.2908464 0.6564277,-0.2221354 1.0970904,-0.110111 0.2218406,0.2357801 0.9397368,0.556808 1.1787478,0.5878812 z"
     id="parking-motorcycle"
     style="fill:#000000;fill-rule:evenodd" />
</svg>
